<svg xmlns="http://www.w3.org/2000/svg" width="36" height="36" viewBox="0 0 36 36" fill="none"><g clip-path="url(#clip0_0_395)"><path d="M35.0641 16.0215L30.6207 13.082V3.16992C30.6207 3.01042 30.5638 2.8737 30.4498 2.75977C30.3359 2.64583 30.1992 2.58887 30.0397 2.58887H5.63538C5.47587 2.58887 5.33915 2.64583 5.22522 2.75977C5.11129 2.8737 5.05432 3.01042 5.05432 3.16992V13.082L0.610962 16.0215C0.519816 16.0898 0.451457 16.1639 0.405884 16.2437C0.360311 16.3234 0.337524 16.4089 0.337524 16.5V34.4785C0.337524 34.638 0.394491 34.7747 0.508423 34.8887C0.622355 35.0026 0.759074 35.0596 0.918579 35.0596H34.7565C34.916 35.0596 35.0527 35.0026 35.1666 34.8887C35.2806 34.7747 35.3375 34.638 35.3375 34.4785V16.5C35.3375 16.4089 35.3147 16.3234 35.2692 16.2437C35.2236 16.1639 35.1552 16.0898 35.0641 16.0215ZM5.05432 18.0723L3.2428 17.0811H5.05432V18.0723ZM1.49963 17.4912L14.8297 24.5664L1.49963 33.3848V17.4912ZM17.8375 23.9512L32.8424 33.8975H2.83264L17.8375 23.9512ZM20.8453 24.5664L34.1754 17.4912V33.3848L20.8453 24.5664ZM30.6207 17.0811H32.4323L30.6207 18.0723V17.0811ZM32.8424 15.9531H30.6207V14.4492L32.8424 15.9531ZM29.4586 3.75098V18.6875L19.7516 23.8145L18.1451 22.7549C18.054 22.7093 17.9515 22.6865 17.8375 22.6865C17.7236 22.6865 17.6211 22.7093 17.5299 22.7549L15.9235 23.8145L6.21643 18.6875V3.75098H29.4586ZM5.05432 15.9531H2.83264L5.05432 14.4492V15.9531ZM17.8375 17.833H22.4518C22.6113 17.833 22.748 17.776 22.8619 17.6621C22.9759 17.5482 23.0328 17.4115 23.0328 17.252C23.0328 17.0924 22.9759 16.9557 22.8619 16.8418C22.748 16.7279 22.6113 16.6709 22.4518 16.6709H17.8375C16.721 16.6709 15.7697 16.2778 14.9835 15.4917C14.1974 14.7056 13.8043 13.7542 13.8043 12.6377V12.4668C13.8043 11.3503 14.1974 10.3989 14.9835 9.61279C15.7697 8.82666 16.721 8.43359 17.8375 8.43359C18.9541 8.43359 19.9054 8.82666 20.6915 9.61279C21.4777 10.3989 21.8707 11.3503 21.8707 12.4668V12.877C21.8707 13.1276 21.7853 13.3384 21.6144 13.5093C21.4435 13.6802 21.2441 13.7656 21.0162 13.7656C20.7656 13.7656 20.5548 13.6802 20.3839 13.5093C20.213 13.3384 20.1276 13.1276 20.1276 12.877V12.0908C20.1276 11.3844 19.8826 10.7863 19.3927 10.2964C18.9028 9.80648 18.316 9.56152 17.6324 9.56152C16.9261 9.56152 16.3279 9.80648 15.838 10.2964C15.3481 10.7863 15.1031 11.3844 15.1031 12.0908C15.1031 12.7744 15.3481 13.3612 15.838 13.8511C16.3279 14.341 16.9261 14.5859 17.6324 14.5859C17.9515 14.5859 18.2477 14.529 18.5211 14.415C18.7946 14.3011 19.0452 14.153 19.2731 13.9707C19.4554 14.2441 19.7003 14.472 20.0079 14.6543C20.3156 14.8366 20.6517 14.9277 21.0162 14.9277C21.5631 14.9277 22.0359 14.7284 22.4347 14.3296C22.8335 13.9308 23.0328 13.4466 23.0328 12.877V12.4668C23.0328 11.0312 22.5258 9.80648 21.5118 8.79248C20.4978 7.77848 19.2731 7.27148 17.8375 7.27148C16.402 7.27148 15.1772 7.77848 14.1632 8.79248C13.1492 9.80648 12.6422 11.0312 12.6422 12.4668V12.6377C12.6422 14.0732 13.1492 15.298 14.1632 16.312C15.1772 17.326 16.402 17.833 17.8375 17.833ZM17.6324 13.4238C17.2451 13.4238 16.9204 13.2928 16.6583 13.0308C16.3963 12.7687 16.2653 12.4554 16.2653 12.0908C16.2653 11.7035 16.3963 11.3787 16.6583 11.1167C16.9204 10.8547 17.2451 10.7236 17.6324 10.7236C17.997 10.7236 18.3103 10.8547 18.5724 11.1167C18.8344 11.3787 18.9655 11.7035 18.9655 12.0908C18.9655 12.4554 18.8344 12.7687 18.5724 13.0308C18.3103 13.2928 17.997 13.4238 17.6324 13.4238Z" fill="#333842"></path></g><defs><clipPath id="clip0_0_395"><rect width="35" height="35" fill="white" transform="matrix(1 0 0 -1 0.337524 35.8799)"></rect></clipPath></defs></svg>