<svg xmlns="http://www.w3.org/2000/svg" width="36" height="36" viewBox="0 0 36 36" fill="none"><g clip-path="url(#clip0_0_402)"><path d="M30.8942 35.0938L26.2799 25.3184C26.2343 25.2272 26.1717 25.1475 26.0919 25.0791C26.0122 25.0107 25.9267 24.9538 25.8356 24.9082L23.5455 23.8828L27.5104 17.2178C27.5104 17.195 27.5104 17.1836 27.5104 17.1836C27.5104 17.1836 27.5218 17.1722 27.5446 17.1494C27.9319 16.3747 28.2281 15.5771 28.4332 14.7568C28.6383 13.9365 28.7408 13.082 28.7408 12.1934C28.7408 10.735 28.4617 9.33936 27.9034 8.00635C27.3452 6.67334 26.542 5.49414 25.4938 4.46875C24.4456 3.42057 23.2493 2.62874 21.9049 2.09326C20.5605 1.55778 19.1477 1.30143 17.6666 1.32422C16.2539 1.347 14.8981 1.63184 13.5992 2.17871C12.3004 2.72559 11.1383 3.51172 10.1129 4.53711C9.11031 5.5625 8.33557 6.73031 7.7887 8.04053C7.24182 9.35075 6.95699 10.7122 6.9342 12.125C6.9342 13.0137 7.03674 13.8853 7.24182 14.7397C7.4469 15.5942 7.74312 16.3975 8.13049 17.1494C8.15328 17.1722 8.16467 17.1836 8.16467 17.1836C8.16467 17.1836 8.16467 17.195 8.16467 17.2178L12.1295 23.8828L9.83948 24.9082C9.74833 24.9538 9.66288 25.0107 9.58313 25.0791C9.50338 25.1475 9.44071 25.2272 9.39514 25.3184L4.78088 35.0938C4.71252 35.2533 4.69543 35.4242 4.72961 35.6064C4.76379 35.7887 4.83785 35.9368 4.95178 36.0508C5.0885 36.1875 5.24231 36.2729 5.41321 36.3071C5.58411 36.3413 5.74931 36.3242 5.90881 36.2559L11.7194 33.6582L17.4957 36.2559C17.6097 36.3014 17.7236 36.3242 17.8375 36.3242C17.9515 36.3242 18.0654 36.3014 18.1793 36.2559L23.9557 33.6582L29.7662 36.2559C29.8118 36.2786 29.8631 36.2957 29.92 36.3071C29.977 36.3185 30.0397 36.3242 30.108 36.3242C30.222 36.3242 30.3302 36.3014 30.4327 36.2559C30.5353 36.2103 30.6321 36.1419 30.7233 36.0508C30.8372 35.9368 30.9113 35.7887 30.9454 35.6064C30.9796 35.4242 30.9625 35.2533 30.8942 35.0938ZM9.66858 16.3633C9.32678 15.7025 9.07613 15.0189 8.91663 14.3125C8.75712 13.6061 8.67737 12.8883 8.67737 12.1592C8.67737 10.9059 8.91663 9.73242 9.39514 8.63867C9.87366 7.54492 10.5231 6.58789 11.3434 5.76758C12.1637 4.94727 13.1207 4.28646 14.2145 3.78516C15.3082 3.30664 16.4703 3.05599 17.7008 3.0332C18.9313 3.0332 20.1162 3.25537 21.2555 3.69971C22.3948 4.14404 23.3974 4.81055 24.2633 5.69922C25.152 6.5651 25.8299 7.55631 26.297 8.67285C26.7641 9.78939 26.9977 10.9629 26.9977 12.1934C26.9977 12.9225 26.9122 13.6346 26.7413 14.3296C26.5704 15.0246 26.3255 15.7025 26.0065 16.3633L18.5895 28.8047C18.4755 28.987 18.3388 29.1009 18.1793 29.1465C18.0198 29.1921 17.9059 29.2148 17.8375 29.2148C17.7692 29.2148 17.6552 29.1921 17.4957 29.1465C17.3362 29.1009 17.1995 28.987 17.0856 28.8047L9.66858 16.3633ZM24.3317 31.9492C24.2177 31.8809 24.0981 31.8467 23.9728 31.8467C23.8475 31.8467 23.7278 31.8809 23.6139 31.9492L17.8375 34.5127L12.0612 31.9492C11.9472 31.8809 11.8276 31.8467 11.7023 31.8467C11.5769 31.8467 11.4573 31.8809 11.3434 31.9492L7.34436 33.7266L10.8307 26.3438L13.0524 25.3867L15.6158 29.6934C15.8437 30.0807 16.157 30.3883 16.5558 30.6162C16.9545 30.8441 17.3818 30.958 17.8375 30.958C18.2933 30.958 18.7205 30.8441 19.1193 30.6162C19.518 30.3883 19.8313 30.0807 20.0592 29.6934L22.6227 25.3867L24.8444 26.3438L28.3307 33.7266L24.3317 31.9492ZM17.8375 8.2627C16.7438 8.2627 15.8152 8.65006 15.0519 9.4248C14.2885 10.1995 13.9069 11.1224 13.9069 12.1934C13.9069 13.2871 14.2885 14.2214 15.0519 14.9961C15.8152 15.7708 16.7438 16.1582 17.8375 16.1582C18.9313 16.1582 19.8598 15.7708 20.6232 14.9961C21.3865 14.2214 21.7682 13.2871 21.7682 12.1934C21.7682 11.1224 21.3865 10.1995 20.6232 9.4248C19.8598 8.65006 18.9313 8.2627 17.8375 8.2627ZM17.8375 14.415C17.2223 14.415 16.6982 14.1986 16.2653 13.7656C15.8323 13.3327 15.6158 12.8086 15.6158 12.1934C15.6158 11.6009 15.8323 11.0882 16.2653 10.6553C16.6982 10.2223 17.2223 10.0059 17.8375 10.0059C18.4528 10.0059 18.9768 10.2223 19.4098 10.6553C19.8427 11.0882 20.0592 11.6009 20.0592 12.1934C20.0592 12.8086 19.8427 13.3327 19.4098 13.7656C18.9768 14.1986 18.4528 14.415 17.8375 14.415Z" fill="#333842"></path></g><defs><clipPath id="clip0_0_402"><rect width="35" height="35" fill="white" transform="matrix(1 0 0 -1 0.337524 35.8799)"></rect></clipPath></defs></svg>