<svg xmlns="http://www.w3.org/2000/svg" width="36" height="36" viewBox="0 0 36 36" fill="none"><g clip-path="url(#clip0_0_388)"><path d="M33.8326 25.8311L30.7906 22.7891C30.3349 22.3333 29.7596 22.1169 29.0646 22.1396C28.3696 22.1624 27.8056 22.4017 27.3727 22.8574C26.3929 23.9512 25.6751 24.6405 25.2194 24.9253C24.7636 25.2101 24.4902 25.3753 24.399 25.4209C24.2168 25.4437 24.0345 25.4608 23.8522 25.4722C23.6699 25.4836 23.499 25.4893 23.3395 25.4893C22.6103 25.4893 21.847 25.3639 21.0494 25.1133C20.2519 24.8626 19.443 24.498 18.6227 24.0195C17.8024 23.541 17.0048 22.9714 16.2301 22.3105C15.4554 21.6497 14.7376 20.9092 14.0768 20.0889C12.983 18.7445 12.1855 17.3773 11.6842 15.9873C11.1829 14.5973 11.0348 13.3555 11.2399 12.2617C11.2854 12.1934 11.4506 11.9256 11.7355 11.4585C12.0203 10.9914 12.7096 10.2679 13.8033 9.28809C14.054 9.06022 14.2477 8.79818 14.3844 8.50195C14.5211 8.20573 14.5895 7.89811 14.5895 7.5791C14.5895 7.2373 14.5211 6.91829 14.3844 6.62207C14.2477 6.32585 14.0768 6.0752 13.8717 5.87012L10.8297 2.79395C10.4423 2.40657 9.95813 2.18441 9.37708 2.12744C8.79602 2.07048 8.27763 2.2015 7.8219 2.52051C7.06995 3.06738 6.29521 3.65983 5.49768 4.29785C4.70015 4.93587 3.97668 5.57389 3.32727 6.21191C2.67786 6.84994 2.14807 7.47656 1.73792 8.0918C1.32776 8.72982 1.12268 9.31087 1.12268 9.83496C1.12268 12.1136 2.03414 14.734 3.85706 17.6963C5.67997 20.6585 7.91304 23.4613 10.5563 26.1045C13.1995 28.7477 16.0022 30.9694 18.9645 32.7695C21.9267 34.5924 24.5472 35.5039 26.8258 35.5039C27.3727 35.5039 27.9651 35.2988 28.6031 34.8887C29.2184 34.4785 29.8507 33.9544 30.5001 33.3164C31.1495 32.6784 31.7819 31.9606 32.3971 31.1631C33.0351 30.3656 33.6162 29.5908 34.1403 28.8389C34.4593 28.3831 34.5903 27.8704 34.5333 27.3008C34.4764 26.7311 34.2428 26.2412 33.8326 25.8311ZM33.0807 28.1211C31.7591 29.9668 30.54 31.4365 29.4235 32.5303C28.3069 33.624 27.4638 34.1709 26.8942 34.1709C24.7978 34.1709 22.3483 33.2936 19.5455 31.5391C16.7428 29.7845 14.0825 27.654 11.5646 25.1475C9.04667 22.641 6.92183 19.9863 5.19006 17.1836C3.43551 14.3809 2.55823 11.9313 2.55823 9.83496C2.55823 9.24251 3.09371 8.39372 4.16467 7.28857C5.23564 6.18343 6.71676 4.97005 8.60803 3.64844C8.79032 3.53451 8.98971 3.48893 9.20618 3.51172C9.42265 3.53451 9.62203 3.64844 9.80432 3.85352L12.8805 6.92969C13.0856 7.15755 13.1596 7.4196 13.1027 7.71582C13.0457 8.01204 12.9489 8.21712 12.8121 8.33105C11.6045 9.44759 10.8183 10.285 10.4537 10.8433C10.0892 11.4015 9.87268 11.8288 9.80432 12.125C9.55367 13.4238 9.70178 14.8594 10.2487 16.4316C10.7955 18.0039 11.6956 19.5534 12.9489 21.0801C13.678 21.9688 14.4642 22.7777 15.3073 23.5068C16.1731 24.2132 17.0504 24.8285 17.9391 25.3525C18.8278 25.8766 19.7278 26.2754 20.6393 26.5488C21.5507 26.8223 22.4166 26.959 23.2369 26.959C23.4876 26.959 23.7268 26.9476 23.9547 26.9248C24.1826 26.902 24.399 26.8678 24.6041 26.8223C24.8776 26.7539 25.2991 26.5431 25.8688 26.1899C26.4384 25.8368 27.2701 25.0563 28.3639 23.8486C28.5462 23.6436 28.7854 23.5353 29.0817 23.5239C29.3779 23.5125 29.6171 23.598 29.7994 23.7803L32.9098 26.8906C33.0921 27.0501 33.2003 27.2495 33.2345 27.4888C33.2687 27.728 33.2174 27.9388 33.0807 28.1211ZM28.2955 8.70703C29.4804 9.86914 30.3121 11.242 30.7906 12.8257C31.2692 14.4093 31.3603 15.9987 31.0641 17.5938L32.4313 17.7988C32.5908 16.8874 32.6364 15.9645 32.568 15.0303C32.4996 14.1188 32.3287 13.2301 32.0553 12.3643C31.7819 11.4984 31.4173 10.6667 30.9615 9.86914C30.5058 9.0944 29.9475 8.37663 29.2867 7.71582C28.6031 7.00944 27.8512 6.41699 27.0309 5.93848C26.1878 5.45996 25.3105 5.08968 24.399 4.82764C23.4876 4.56559 22.5533 4.41178 21.5963 4.36621C20.6393 4.34342 19.6709 4.43457 18.691 4.63965L18.9987 6.00684C20.6621 5.61947 22.3198 5.65934 23.9718 6.12646C25.6238 6.59359 27.0651 7.45378 28.2955 8.70703ZM27.236 17.1152C27.4183 16.0671 27.3556 15.0417 27.048 14.0391C26.7404 13.0365 26.2106 12.1592 25.4586 11.4072C24.6839 10.6325 23.7724 10.0913 22.7242 9.78369C21.6761 9.47607 20.5937 9.44759 19.4772 9.69824L19.7848 11.0654C20.6279 10.8831 21.4653 10.9116 22.297 11.1509C23.1287 11.3901 23.8522 11.806 24.4674 12.3984C25.0826 13.0137 25.5099 13.7144 25.7491 14.5005C25.9884 15.2866 26.0397 16.0785 25.903 16.876L27.236 17.1152Z" fill="#333842"></path></g><defs><clipPath id="clip0_0_388"><rect width="35" height="35" fill="white" transform="matrix(1 0 0 -1 0.337524 35.8799)"></rect></clipPath></defs></svg>