<svg xmlns="http://www.w3.org/2000/svg" width="48" height="48" viewBox="0 0 48 48" fill="none"><path d="M6 1.5C4.75736 1.5 3.75 2.50736 3.75 3.75V31.5H2.25C1.83579 31.5 1.5 31.8358 1.5 32.25C1.5 32.6642 1.83579 33 2.25 33H6.75H6.75281H8.25C8.25 29.5536 10.3633 26.6008 13.3647 25.3666C11.6461 24.3113 10.5 22.4145 10.5 20.25C10.5 16.9363 13.1863 14.25 16.5 14.25C19.8137 14.25 22.5 16.9363 22.5 20.25C22.5 22.4146 21.3537 24.3116 19.6349 25.3669C20.7533 25.8268 21.7478 26.525 22.5552 27.397L26.8767 25.628C27.6797 25.2993 28.526 25.2428 29.3131 25.414L35.5206 13.9301C36.1115 12.8369 37.4767 12.4298 38.5699 13.0207C39.663 13.6115 40.0702 14.9767 39.4793 16.07L32.5319 28.9227C32.7395 30.541 31.9651 32.1592 30.5336 33H45.75C46.1642 33 46.5 32.6642 46.5 32.25C46.5 31.8358 46.1642 31.5 45.75 31.5H44.25V3.75C44.25 2.50735 43.2427 1.5 42 1.5H6Z" fill="#EE6A31"></path><path d="M37.8566 14.3401C38.221 14.5371 38.3567 14.9922 38.1598 15.3565L30.9531 28.6887C31.3402 29.9691 30.6968 31.3578 29.4338 31.8748L23.25 34.4061V45.7499C23.25 46.1641 22.9142 46.4999 22.5 46.4999H10.5C10.0858 46.4999 9.75 46.1641 9.75 45.7499V32.9999C9.75 29.2719 12.772 26.2499 16.5 26.2499C18.8239 26.2499 20.8725 27.4245 22.0861 29.2097L27.4449 27.0161C28.319 26.6583 29.2743 26.8062 29.9858 27.3239L36.8402 14.6433C37.0372 14.2788 37.4922 14.1432 37.8566 14.3401Z" fill="#EE6A31"></path><path d="M16.5 15.75C14.0147 15.75 12 17.7647 12 20.25C12 22.7353 14.0147 24.75 16.5 24.75C18.9853 24.75 21 22.7353 21 20.25C21 17.7647 18.9853 15.75 16.5 15.75Z" fill="#EE6A31"></path></svg>